HIERARCHY
ROOT Hips
{
 OFFSET 0.000000 0.000000 0.000000
 CHANNELS 6 Xposition Yposition Zposition Yrotation Xrotation Zrotation
 JOINT Chest
 {
  OFFSET 0.000000 9.585900 0.002600
  CHANNELS 3 Yrotation Xrotation Zrotation
  JOINT Chest2
  {
   OFFSET 0.000000 9.601200 -0.005300
   CHANNELS 3 Yrotation Xrotation Zrotation
   JOINT Chest3
   {
    OFFSET 0.000000 9.561800 0.000000
    CHANNELS 3 Yrotation Xrotation Zrotation
    JOINT Chest4
    {
     OFFSET 0.000000 9.552100 0.000000
     CHANNELS 3 Yrotation Xrotation Zrotation
     JOINT Neck
     {
      OFFSET 0.000000 14.453000 0.000000
      CHANNELS 3 Yrotation Xrotation Zrotation
      JOINT Head
      {
       OFFSET 0.000000 8.936500 -0.011300
       CHANNELS 3 Yrotation Xrotation Zrotation
       End Site
       {
        OFFSET 0.000000 17.073600 -0.006000
       }
      }
     }
     JOINT RightCollar
     {
      OFFSET -2.921100 9.558500 0.000000
      CHANNELS 3 Yrotation Xrotation Zrotation
      JOINT RightShoulder
      {
       OFFSET -13.519700 0.000000 0.000000
       CHANNELS 3 Yrotation Xrotation Zrotation
       JOINT RightElbow
       {
        OFFSET 0.000000 -29.696600 0.000000
        CHANNELS 3 Yrotation Xrotation Zrotation
        JOINT RightWrist
        {
         OFFSET 0.000000 -24.004700 0.000000
         CHANNELS 3 Yrotation Xrotation Zrotation
         End Site
         {
          OFFSET 0.000000 -17.728500 0.000000
         }
        }
       }
      }
     }
     JOINT LeftCollar
     {
      OFFSET 2.921100 9.558500 0.000000
      CHANNELS 3 Yrotation Xrotation Zrotation
      JOINT LeftShoulder
      {
       OFFSET 13.519700 0.000000 0.000000
       CHANNELS 3 Yrotation Xrotation Zrotation
       JOINT LeftElbow
       {
        OFFSET 0.000000 -29.696600 0.000000
        CHANNELS 3 Yrotation Xrotation Zrotation
        JOINT LeftWrist
        {
         OFFSET 0.000000 -24.004700 0.000000
         CHANNELS 3 Yrotation Xrotation Zrotation
         End Site
         {
          OFFSET 0.000000 -17.728500 0.000000
         }
        }
       }
      }
     }
    }
   }
  }
 }
 JOINT RightHip
 {
  OFFSET -7.771700 -0.012900 -0.001300
  CHANNELS 3 Yrotation Xrotation Zrotation
  JOINT RightKnee
  {
   OFFSET 0.000000 -40.869800 0.001200
   CHANNELS 3 Yrotation Xrotation Zrotation
   JOINT RightAnkle
   {
    OFFSET 0.000000 -39.717900 0.002100
    CHANNELS 3 Yrotation Xrotation Zrotation
    JOINT RightToe
    {
     OFFSET 0.000000 -4.965400 11.033500
     CHANNELS 3 Yrotation Xrotation Zrotation
     End Site
     {
      OFFSET 0.000000 -1.423100 5.872300
     }
    }
   }
  }
 }
 JOINT LeftHip
 {
  OFFSET 7.771700 -0.012900 -0.001300
  CHANNELS 3 Yrotation Xrotation Zrotation
  JOINT LeftKnee
  {
   OFFSET 0.000000 -40.869800 0.001200
   CHANNELS 3 Yrotation Xrotation Zrotation
   JOINT LeftAnkle
   {
    OFFSET 0.000000 -39.717900 0.002100
    CHANNELS 3 Yrotation Xrotation Zrotation
    JOINT LeftToe
    {
     OFFSET 0.000000 -4.965400 11.033500
     CHANNELS 3 Yrotation Xrotation Zrotation
     End Site
     {
      OFFSET 0.000000 -1.423100 5.872300
     }
    }
   }
  }
 }
}
MOTION
Frames: 5
Frame Time: 0.008333
0.000000 85.388000 0.000000 0.000000 -5.767877 0.000000 0.000000 11.653817 0.000000 0.000000 -5.885947 0.000000 0.000000 -0.000000 0.000000 0.000000 -0.000000 0.000000 0.000000 12.528835 0.000000 0.000000 0.711642 0.000000 0.000000 -0.000000 0.000000 0.000000 0.000000 -90.000000 0.000000 -2.309062 0.000000 0.000000 2.309062 0.000000 0.000000 -0.000000 0.000000 0.000000 -0.000000 90.000000 0.000000 -2.309062 0.000000 0.000000 2.309062 0.000000 0.000000 8.520406 0.000000 0.000000 1.905762 0.000000 -0.000000 -4.658285 0.000000 0.000000 -0.000000 0.000000 0.000000 8.520406 0.000000 0.000000 1.905762 0.000000 -0.000000 -4.658285 0.000000 0.000000 -0.000000 0.000000
8.590952 49.942573 46.755857 173.745252 -34.382956 -6.856056 5.831087 22.086257 7.341138 0.740543 3.322673 0.795321 1.132782 5.317541 1.313273 4.713218 18.624059 5.245909 -4.142981 13.496642 0.107763 -7.869077 -10.612047 1.841262 0.863707 -1.069490 -2.673890 9.563311 -13.159771 -6.114075 135.911038 -73.178439 -143.951369 0.938734 -10.718323 -2.519351 -14.297038 1.229980 -0.806084 -1.665053 -15.577070 5.498714 -116.295158 -60.104587 133.180427 26.208054 -34.036793 8.494717 -1.377122 -45.989220 10.609512 -131.994440 85.661455 -120.286456 -2.893721 -13.372672 -4.694378 -0.199754 0.747867 -0.084676 -8.323218 -50.180853 16.143533 -151.679958 81.010003 -159.297695 -0.460115 -13.845531 8.193666 -0.252033 -0.736002 -0.108752
8.590757 49.943532 46.757586 173.754095 -34.354298 -6.871143 5.735533 22.037716 7.326670 0.779184 3.340169 0.786135 1.026824 5.242639 1.317623 4.650547 18.607032 5.231239 -4.086013 13.430824 0.003270 -7.723689 -10.744219 1.626036 0.968188 -1.327687 -2.731117 9.844461 -13.391076 -6.278577 134.769206 -74.127004 -142.943679 0.704358 -11.214413 -2.904438 -14.177340 0.961308 -0.887991 -1.755885 -15.608791 5.414905 -113.668583 -59.084228 131.011466 26.178197 -35.289124 9.084190 -1.404410 -46.013560 10.624869 -131.941159 85.662911 -120.240625 -2.861902 -13.366182 -4.702173 -0.194336 0.744510 -0.083761 -8.361321 -50.206283 16.168724 -151.667154 81.010885 -159.288530 -0.450576 -13.844958 8.188328 -0.249822 -0.732129 -0.109583
8.589755 49.945176 46.759899 173.775076 -34.314346 -6.890194 5.607095 21.962059 7.304006 0.689183 3.280090 0.788851 1.061389 5.243280 1.301423 4.546222 18.564463 5.216343 -3.999148 13.385047 -0.117092 -7.514140 -10.841457 1.367473 1.110369 -1.595891 -2.803999 10.127824 -13.610177 -6.434148 133.489024 -75.239194 -141.780482 0.528098 -11.687077 -3.222475 -14.009565 0.644536 -0.994747 -1.876173 -15.556118 5.295221 -110.833799 -57.899146 128.694138 26.083622 -36.555354 9.640221 -1.441250 -46.045512 10.641780 -131.842895 85.664134 -120.147713 -2.866013 -13.365387 -4.704467 -0.196985 0.743957 -0.081934 -8.406255 -50.243546 16.186720 -151.620691 81.013929 -159.239936 -0.439945 -13.836672 8.179193 -0.244707 -0.732416 -0.108359
8.587473 49.948737 46.761226 173.787158 -34.274407 -6.897253 5.465806 21.863848 7.268051 0.636736 3.229262 0.785997 1.051872 5.211838 1.289101 4.429453 18.502033 5.198273 -3.880011 13.362497 -0.254768 -7.235323 -10.897567 1.061760 1.284554 -1.845247 -2.874527 10.401631 -13.844992 -6.566252 132.214828 -76.566691 -140.573158 0.403718 -12.072399 -3.450378 -13.799635 0.298551 -1.121801 -2.031131 -15.420026 5.140513 -107.855815 -56.581222 126.267842 25.882139 -37.809433 10.186372 -1.465921 -46.080645 10.648565 -131.799061 85.667265 -120.107484 -2.889681 -13.357848 -4.697708 -0.203184 0.733321 -0.087164 -8.429154 -50.279033 16.193643 -151.614673 81.019887 -159.235061 -0.440696 -13.831550 8.177819 -0.242315 -0.733550 -0.107128
